<?xml version="1.0" encoding="utf-8"?>
<!-- Generator: Adobe Illustrator 25.0.1, SVG Export Plug-In . SVG Version: 6.00 Build 0)  -->
<svg version="1.0" id="Layer_1" xmlns="http://www.w3.org/2000/svg" xmlns:xlink="http://www.w3.org/1999/xlink" x="0px" y="0px"
	 viewBox="0 0 244 172" style="enable-background:new 0 0 244 172;" xml:space="preserve">
<style type="text/css">
	.st0{fill:#0020FE;}
	.st1{fill:none;}
</style>
<path class="st0" d="M213.5,104.5h-5.9L187.1,84h23.5v4.1H197L213.5,104.5z M210.5,67.5h-37v37h4.1V71.6h32.9V67.5z"/>
<path d="M40.6,95.1h3.6l-4-8.2h0.1c2.1-0.6,3.5-2.5,3.3-4.6c0-3.4-2.1-5.4-5.8-5.4h-7.3v18.2h3.3v-7.6h3.2L40.6,95.1L40.6,95.1z
	 M33.8,85v-5.5h3.4c2,0,3.1,0.9,3.1,2.7c0,1.9-1.1,2.7-3.7,2.7L33.8,85z M57.7,87v-2.8h-6.3v-4.6H60v-2.7H48v18.2h12.3v-2.7h-9V87
	H57.7z M74.3,84.3h-6.2v-4.6h8.2v-2.7H64.8v18.2h3.3V87h6.2V84.3L74.3,84.3z M80.3,76.9v18.2h3.3V76.9L80.3,76.9z M108.8,76.9v18.2
	h3.3V76.9L108.8,76.9z M129.1,76.9h-13v2.7h4.9v15.5h3.3V79.6h4.8L129.1,76.9L129.1,76.9z M133.1,76.9v18.2h3.3V76.9L133.1,76.9z
	 M100.2,76.9v12.9h-0.1l-7.4-12.9h-3.5v18.2h3.1V81.6l0,0l4.1,7.1l3.7,6.4h3.2V76.9L100.2,76.9z M152,76.9l-4.2,14.8l0,0l-4.3-14.8
	h-3.2l5.6,18.2h3.8l5.6-18.2H152z"/>
<rect x="24" y="63" class="st1" width="196" height="46"/>
</svg>
